<svg xmlns="http://www.w3.org/2000/svg" viewBox="70 70 120 120" width="270" height="270" preserveAspectRatio="xMidYMid meet" style="width: 100%; height: 100%; transform: translate3d(0px, 0px, 0px);"><defs><clipPath id="__lottie_element_343"><rect width="270" height="270" x="0" y="0"></rect></clipPath><clipPath id="__lottie_element_345"><path d="M0,0 L480,0 L480,480 L0,480z"></path></clipPath><clipPath id="__lottie_element_348"><path d="M0,0 L480,0 L480,480 L0,480z"></path></clipPath><clipPath id="__lottie_element_358"><path d="M0,0 L480,0 L480,480 L0,480z"></path></clipPath><clipPath id="__lottie_element_367"><path d="M0,0 L480,0 L480,480 L0,480z"></path></clipPath><clipPath id="__lottie_element_376"><path d="M0,0 L480,0 L480,480 L0,480z"></path></clipPath><clipPath id="__lottie_element_385"><path d="M0,0 L480,0 L480,480 L0,480z"></path></clipPath><clipPath id="__lottie_element_394"><path d="M0,0 L480,0 L480,480 L0,480z"></path></clipPath></defs><g clip-path="url(#__lottie_element_343)"><g clip-path="url(#__lottie_element_345)" transform="matrix(0.4350000023841858,0,0,0.4350000023841858,28.474998474121094,26.724998474121094)" opacity="1" style="display: block;"><g clip-path="url(#__lottie_element_394)" style="display: none;" transform="matrix(0.30901700258255005,-0.9510565400123596,0.9510565400123596,0.30901700258255005,-62.417633056640625,414.0894775390625)" opacity="1"><g style="display: block;" transform="matrix(0.7537549138069153,0.6571556329727173,-0.6571556329727173,0.7537549138069153,240,240)" opacity="1"><path stroke-linecap="round" stroke-linejoin="round" fill-opacity="0" stroke="rgb(255,39,145)" stroke-opacity="1" stroke-width="5.242584145509937" d=" M0,-166.12232971191406 C0,-166.12232971191406 0,-166.31300354003906 0,-166.31300354003906"></path></g><g style="display: block;" transform="matrix(0.9947255849838257,-0.1025719940662384,0.1025719940662384,0.9947255849838257,240,240)" opacity="1"><path stroke-linecap="round" stroke-linejoin="round" fill-opacity="0" stroke="rgb(255,0,51)" stroke-opacity="1" stroke-width="4.50756939493391" d=" M0,-176.97064208984375 C0,-176.97064208984375 0,-176.9943084716797 0,-176.9943084716797"></path></g></g><g clip-path="url(#__lottie_element_385)" style="display: none;" transform="matrix(-0.80901700258255,-0.5877852439880371,0.5877852439880371,-0.80901700258255,293.0956115722656,595.2325439453125)" opacity="1"><g style="display: block;" transform="matrix(0.7537549138069153,0.6571556329727173,-0.6571556329727173,0.7537549138069153,240,240)" opacity="1"><path stroke-linecap="round" stroke-linejoin="round" fill-opacity="0" stroke="rgb(255,39,145)" stroke-opacity="1" stroke-width="5.242584145509937" d=" M0,-166.12232971191406 C0,-166.12232971191406 0,-166.31300354003906 0,-166.31300354003906"></path></g><g style="display: block;" transform="matrix(0.9947255849838257,-0.1025719940662384,0.1025719940662384,0.9947255849838257,240,240)" opacity="1"><path stroke-linecap="round" stroke-linejoin="round" fill-opacity="0" stroke="rgb(255,0,51)" stroke-opacity="1" stroke-width="4.50756939493391" d=" M0,-176.97064208984375 C0,-176.97064208984375 0,-176.9943084716797 0,-176.9943084716797"></path></g></g><g clip-path="url(#__lottie_element_376)" style="display: none;" transform="matrix(-0.80901700258255,0.5877852439880371,-0.5877852439880371,-0.80901700258255,575.2325439453125,313.0955810546875)" opacity="1"><g style="display: block;" transform="matrix(0.7537549138069153,0.6571556329727173,-0.6571556329727173,0.7537549138069153,240,240)" opacity="1"><path stroke-linecap="round" stroke-linejoin="round" fill-opacity="0" stroke="rgb(255,39,145)" stroke-opacity="1" stroke-width="5.242584145509937" d=" M0,-166.12232971191406 C0,-166.12232971191406 0,-166.31300354003906 0,-166.31300354003906"></path></g><g style="display: block;" transform="matrix(0.9947255849838257,-0.1025719940662384,0.1025719940662384,0.9947255849838257,240,240)" opacity="1"><path stroke-linecap="round" stroke-linejoin="round" fill-opacity="0" stroke="rgb(255,0,51)" stroke-opacity="1" stroke-width="4.50756939493391" d=" M0,-176.97064208984375 C0,-176.97064208984375 0,-176.9943084716797 0,-176.9943084716797"></path></g></g><g clip-path="url(#__lottie_element_367)" style="display: none;" transform="matrix(0.30901700258255005,0.9510565400123596,-0.9510565400123596,0.30901700258255005,394.0894775390625,-42.41766357421875)" opacity="1"><g style="display: block;" transform="matrix(0.7537549138069153,0.6571556329727173,-0.6571556329727173,0.7537549138069153,240,240)" opacity="1"><path stroke-linecap="round" stroke-linejoin="round" fill-opacity="0" stroke="rgb(255,39,145)" stroke-opacity="1" stroke-width="5.242584145509937" d=" M0,-166.12232971191406 C0,-166.12232971191406 0,-166.31300354003906 0,-166.31300354003906"></path></g><g style="display: block;" transform="matrix(0.9947255849838257,-0.1025719940662384,0.1025719940662384,0.9947255849838257,240,240)" opacity="1"><path stroke-linecap="round" stroke-linejoin="round" fill-opacity="0" stroke="rgb(255,0,51)" stroke-opacity="1" stroke-width="4.50756939493391" d=" M0,-176.97064208984375 C0,-176.97064208984375 0,-176.9943084716797 0,-176.9943084716797"></path></g></g><g clip-path="url(#__lottie_element_358)" style="display: none;" transform="matrix(1,0,0,1,0,19.999969482421875)" opacity="1"><g style="display: block;" transform="matrix(0.7537549138069153,0.6571556329727173,-0.6571556329727173,0.7537549138069153,240,240)" opacity="1"><path stroke-linecap="round" stroke-linejoin="round" fill-opacity="0" stroke="rgb(255,39,145)" stroke-opacity="1" stroke-width="5.242584145509937" d=" M0,-166.12232971191406 C0,-166.12232971191406 0,-166.31300354003906 0,-166.31300354003906"></path></g><g style="display: block;" transform="matrix(0.9947255849838257,-0.1025719940662384,0.1025719940662384,0.9947255849838257,240,240)" opacity="1"><path stroke-linecap="round" stroke-linejoin="round" fill-opacity="0" stroke="rgb(255,0,51)" stroke-opacity="1" stroke-width="4.50756939493391" d=" M0,-176.97064208984375 C0,-176.97064208984375 0,-176.9943084716797 0,-176.9943084716797"></path></g></g><g clip-path="url(#__lottie_element_348)" transform="matrix(1,0,0,1,0,0)" opacity="1" style="display: block;"><g style="display: block;" transform="matrix(10,0,0,10,190,230)" opacity="1"><path fill="rgb(255,255,255)" fill-opacity="1" d=" M-4,0 C-4,0 -1,0 -1,0 C-1,0 -1,2.549999952316284 -1,10 C-1.5,10 -3.4000000953674316,10 -4,10 C-4,2.549999952316284 -4,0 -4,0z M11.77,0 C11.77,0 0,0 0,0 C0,0 0,10 0,10 C0,10 10.43,10 10.43,10 C11.49,10 12.41,9.33 12.62,8.39 C12.62,8.39 13.96,2.39 13.96,2.39 C14.23,1.15 13.18,0 11.77,0z M7.54,0 C7.85,-1.03 9.06,-4.94 9.06,-4.94 C9.49,-6.72 7.08,-7.5 6.18,-6.64 C5.76,-6.23 4.62,-5 3.85,-4.17 C2.56,-2.79 0,0 0,0 C0,0 5.87,5.58 7.54,0z"></path><g opacity="1" transform="matrix(1,0,0,1,0,0)"><g opacity="1" transform="matrix(1,0,0,1,0,0)"></g></g></g><g transform="matrix(6.900156021118164,0.5571229457855225,-0.5571229457855225,6.900156021118164,171.75306701660156,155.36949157714844)" opacity="1" style="display: none;"><path fill="rgb(255,255,255)" fill-opacity="1" d=" M8,11 C8,11 3,11 3,11 C3,11 3,21 3,21 C3,21 8,21 8,21 C8,21 8,11 8,11z M18.770000457763672,11 C18.770000457763672,11 14.539999961853027,11 14.539999961853027,11 C14.539999961853027,11 16.059999465942383,6.059999942779541 16.059999465942383,6.059999942779541 C16.3799991607666,5.03000020980835 15.539999961853027,4 14.380000114440918,4 C13.800000190734863,4 13.239999771118164,4.239999771118164 12.859999656677246,4.650000095367432 C12.859999656677246,4.650000095367432 7,11 7,11 C7,11 7,21 7,21 C7,21 17.43000030517578,21 17.43000030517578,21 C18.489999771118164,21 19.40999984741211,20.329999923706055 19.6200008392334,19.389999389648438 C19.6200008392334,19.389999389648438 20.959999084472656,13.390000343322754 20.959999084472656,13.390000343322754 C21.229999542236328,12.149999618530273 20.18000030517578,11 18.770000457763672,11z M7,20 C7,20 4,20 4,20 C4,20 4,12 4,12 C4,12 7,12 7,12 C7,12 7,20 7,20z M19.979999542236328,13.170000076293945 C19.979999542236328,13.170000076293945 18.639999389648438,19.170000076293945 18.639999389648438,19.170000076293945 C18.540000915527344,19.649999618530273 18.030000686645508,20 17.43000030517578,20 C17.43000030517578,20 8,20 8,20 C8,20 8,11.390000343322754 8,11.390000343322754 C8,11.390000343322754 13.600000381469727,5.329999923706055 13.600000381469727,5.329999923706055 C13.789999961853027,5.119999885559082 14.079999923706055,5 14.380000114440918,5 C14.640000343322754,5 14.880000114440918,5.110000133514404 15.010000228881836,5.300000190734863 C15.079999923706055,5.400000095367432 15.15999984741211,5.559999942779541 15.100000381469727,5.769999980926514 C15.100000381469727,5.769999980926514 13.579999923706055,10.710000038146973 13.579999923706055,10.710000038146973 C13.579999923706055,10.710000038146973 13.180000305175781,12 13.180000305175781,12 C13.180000305175781,12 14.529999732971191,12 14.529999732971191,12 C14.529999732971191,12 18.760000228881836,12 18.760000228881836,12 C19.170000076293945,12 19.559999465942383,12.170000076293945 19.790000915527344,12.460000038146973 C19.920000076293945,12.609999656677246 20.049999237060547,12.859999656677246 19.979999542236328,13.170000076293945z"></path></g></g></g></g></svg>
